<?xml version="1.0" standalone="no"?>
<!DOCTYPE svg PUBLIC "-//W3C//DTD SVG 20010904//EN"
 "http://www.w3.org/TR/2001/REC-SVG-20010904/DTD/svg10.dtd">
<svg version="1.0" xmlns="http://www.w3.org/2000/svg"
 width="73.000000pt" height="73.000000pt" viewBox="0 0 73.000000 73.000000"
 preserveAspectRatio="xMidYMid meet">
<metadata>
Created by potrace 1.14, written by Peter Selinger 2001-2017
</metadata>
<g transform="translate(0.000000,73.000000) scale(0.100000,-0.100000)"
fill="#000000" stroke="none">
<path d="M0 583 l1 -148 19 54 c36 100 121 185 221 221 l54 19 -147 1 -148 0
0 -147z"/>
<path d="M360 641 l0 -89 -45 -11 c-77 -19 -135 -98 -135 -181 0 -32 32 -100
56 -122 11 -10 36 -24 57 -33 102 -42 210 13 240 122 l11 43 89 0 90 0 -6 -52
c-13 -111 -96 -221 -205 -275 -51 -25 -68 -28 -152 -28 -112 1 -163 19 -236
87 -57 52 -88 100 -108 164 -14 48 -15 47 -15 -108 l-1 -158 365 0 365 0 0
365 0 365 -185 0 -185 0 0 -89z m53 -172 c38 -19 57 -51 57 -97 0 -37 -6 -50
-34 -78 -69 -69 -172 -31 -183 69 -5 43 -3 49 30 82 38 38 86 47 130 24z"/>
</g>
</svg>
